<svg width="320" height="320" viewBox="0 0 320 320" xmlns="http://www.w3.org/2000/svg" role="img" aria-labelledby="title desc">
  <title id="title">Pavel — Line Portrait</title>
  <desc id="desc">A stylized line portrait avatar with duotone shading and adjustable traits.</desc>
  <defs>
    <linearGradient id="bg" x1="0" y1="0" x2="1" y2="1">
      <stop offset="0" stop-color="#F4F1FF"/>
      <stop offset="1" stop-color="#EAF7FF"/>
    </linearGradient>
    <linearGradient id="shadow" x1="0" y1="0" x2="1" y2="1">
      <stop offset="0" stop-color="#5C6BFF" stop-opacity="0.18"/>
      <stop offset="1" stop-color="#F06DD6" stop-opacity="0.18"/>
    </linearGradient>
  </defs>
  <circle cx="160" cy="160" r="156" fill="url(#bg)"/>
  <!-- shoulders/torso -->
  <path d="M64 244c22-28 56-44 96-44s74 16 96 44v16H64v-16Z" fill="#10131D" opacity="0.9"/>
  <!-- neck -->
  <rect x="132" y="188" width="56" height="32" rx="10" fill="#EFD6C5"/>
  <!-- face -->
  <path d="M98 130c0-42 28-70 62-70s62 28 62 70c0 44-30 70-62 70s-62-28-62-70Z" fill="#F4E2D4"/>
  <!-- hair (short, dark) -->
  <path d="M110 132c-2-36 22-56 50-56 26 0 46 14 50 40-10-8-22-10-36-8-16 2-24 8-40 8-10 0-18 4-24 16Z" fill="#1E2435"/>
  <!-- eyebrows -->
  <path d="M126 146c8-6 20-6 28 0" stroke="#1E2435" stroke-width="3" stroke-linecap="round"/>
  <path d="M166 146c8-6 20-6 28 0" stroke="#1E2435" stroke-width="3" stroke-linecap="round"/>
  <!-- eyes -->
  <circle cx="140" cy="156" r="4" fill="#1E2435"/>
  <circle cx="180" cy="156" r="4" fill="#1E2435"/>
  <!-- nose -->
  <path d="M160 154c2 8-2 12-6 14" stroke="#CCB9AC" stroke-width="3" stroke-linecap="round"/>
  <!-- mouth (slight smile) -->
  <path d="M144 178c8 6 24 6 32 0" stroke="#C07BA6" stroke-width="3" stroke-linecap="round"/>
  <!-- beard/stubble -->
  <path d="M124 168c0 16 16 28 36 28s36-12 36-28" stroke="#8D93A6" stroke-width="2" opacity="0.6"/>
  <!-- ear hints -->
  <circle cx="112" cy="162" r="6" fill="#F0D9C9"/>
  <circle cx="208" cy="162" r="6" fill="#F0D9C9"/>
  <!-- subtle face shadow -->
  <ellipse cx="160" cy="182" rx="52" ry="22" fill="url(#shadow)"/>
</svg>
