<svg width="320" height="320" viewBox="0 0 320 320" xmlns="http://www.w3.org/2000/svg" role="img" aria-labelledby="title desc">
  <title id="title">Pavel — Geometric Avatar</title>
  <desc id="desc">A geometric, low-poly avatar with bold shapes and gradients.</desc>
  <defs>
    <linearGradient id="g1" x1="0" y1="0" x2="1" y2="1">
      <stop offset="0" stop-color="#1F2150"/>
      <stop offset="1" stop-color="#4A2A7E"/>
    </linearGradient>
    <linearGradient id="g2" x1="0" y1="1" x2="1" y2="0">
      <stop offset="0" stop-color="#E6D1C0"/>
      <stop offset="1" stop-color="#F5E8DE"/>
    </linearGradient>
  </defs>
  <rect x="0" y="0" width="320" height="320" rx="24" fill="#0C0F1C"/>
  <g transform="translate(40,24)">
    <polygon points="120,0 240,64 120,128 0,64" fill="url(#g1)"/>
    <polygon points="0,64 120,128 120,256 0,192" fill="#27305A"/>
    <polygon points="240,64 120,128 120,256 240,192" fill="#3E2D66"/>
    <!-- face rhombus -->
    <polygon points="120,72 168,112 120,184 72,112" fill="url(#g2)"/>
    <!-- hair block -->
    <polygon points="80,96 120,72 168,112 144,120 120,104 96,116" fill="#1A1F34"/>
    <!-- features -->
    <rect x="94" y="122" width="12" height="4" rx="2" fill="#1A1F34"/>
    <rect x="134" y="122" width="12" height="4" rx="2" fill="#1A1F34"/>
    <rect x="114" y="138" width="12" height="2" rx="1" fill="#B38D98"/>
    <rect x="106" y="148" width="28" height="2" rx="1" fill="#A07994"/>
  </g>
</svg>
