<svg width="512" height="512" viewBox="0 0 512 512" xmlns="http://www.w3.org/2000/svg" role="img" aria-label="Avatar for Pavel">
  <defs>
    <linearGradient id="bg" x1="0" y1="0" x2="1" y2="1">
      <stop offset="0%" stop-color="#E0E7FF"/>
      <stop offset="100%" stop-color="#CFFAFE"/>
    </linearGradient>
    <clipPath id="clip">
      <circle cx="256" cy="256" r="224"/>
    </clipPath>
  </defs>

  <circle cx="256" cy="256" r="236" fill="#ffffff"/>
  <circle cx="256" cy="256" r="224" fill="url(#bg)"/>

  <g clip-path="url(#clip)">
    <!-- shoulders/jacket -->
    <path d="M32 432c36-72 120-120 224-120s188 48 224 120v80H32v-80z" fill="#1F2937"/>
    <!-- neck -->
    <rect x="220" y="280" width="72" height="56" rx="16" fill="#F2C7A6"/>
    <!-- face -->
    <circle cx="256" cy="220" r="96" fill="#F5D0B5"/>
    <!-- hair (generic short) -->
    <path d="M168 216c6-62 50-92 88-92s82 26 88 92c-38-16-62-20-88-20s-50 4-88 20z" fill="#111827"/>
    <!-- eyes -->
    <circle cx="224" cy="220" r="6" fill="#111827"/>
    <circle cx="288" cy="220" r="6" fill="#111827"/>
    <!-- mouth -->
    <path d="M224 262c10 12 54 12 64 0" stroke="#b45309" stroke-width="4" fill="none" stroke-linecap="round"/>
    <!-- shirt collar -->
    <path d="M230 324l26 22l26-22l-10-20h-32l-10 20z" fill="#E5E7EB"/>
  </g>
</svg>
