<svg width="320" height="320" viewBox="0 0 320 320" xmlns="http://www.w3.org/2000/svg" role="img" aria-labelledby="title desc">
  <title id="title">Pavel — Duotone Avatar</title>
  <desc id="desc">A semi-realistic duotone avatar with soft gradients.</desc>
  <defs>
    <linearGradient id="bg" x1="0" y1="0" x2="1" y2="1">
      <stop offset="0" stop-color="#EAE6FF"/>
      <stop offset="1" stop-color="#D7F7FF"/>
    </linearGradient>
    <linearGradient id="skin" x1="0" y1="0" x2="1" y2="1">
      <stop offset="0" stop-color="#F6E5D7"/>
      <stop offset="1" stop-color="#EAD4C1"/>
    </linearGradient>
  </defs>
  <circle cx="160" cy="160" r="156" fill="url(#bg)"/>
  <path d="M80 236c18-26 52-42 80-42s62 16 80 42v20H80v-20Z" fill="#1A1F2F"/>
  <ellipse cx="160" cy="148" rx="62" ry="72" fill="url(#skin)"/>
  <path d="M104 148c-2-30 22-52 56-52 28 0 44 14 48 40-14-10-28-12-40-10-22 4-28 18-48 22-6 2-12 2-16 0Z" fill="#202638"/>
  <rect x="132" y="184" width="56" height="24" rx="8" fill="#E6D3C2"/>
  <path d="M132 168c8 6 48 6 56 0" stroke="#C07BA6" stroke-width="3" stroke-linecap="round"/>
  <ellipse cx="140" cy="152" rx="6" ry="4" fill="#1E2435"/>
  <ellipse cx="180" cy="152" rx="6" ry="4" fill="#1E2435"/>
  <path d="M130 140c8-6 22-6 30 0" stroke="#1E2435" stroke-width="3" stroke-linecap="round"/>
  <path d="M160 140c8-6 22-6 30 0" stroke="#1E2435" stroke-width="3" stroke-linecap="round"/>
</svg>
