<svg width="48" height="48" viewBox="0 0 48 48" fill="none" xmlns="http://www.w3.org/2000/svg">
  <defs>
    <linearGradient id="mainGrad" x1="0%" y1="0%" x2="100%" y2="100%">
      <stop offset="0%" style="stop-color:#667eea;stop-opacity:1" />
      <stop offset="50%" style="stop-color:#764ba2;stop-opacity:1" />
      <stop offset="100%" style="stop-color:#f093fb;stop-opacity:1" />
    </linearGradient>
    <linearGradient id="shineGrad" x1="0%" y1="0%" x2="100%" y2="0%">
      <stop offset="0%" style="stop-color:#ffffff;stop-opacity:0" />
      <stop offset="50%" style="stop-color:#ffffff;stop-opacity:0.3" />
      <stop offset="100%" style="stop-color:#ffffff;stop-opacity:0" />
    </linearGradient>
    <filter id="shadow">
      <feDropShadow dx="0" dy="2" stdDeviation="3" flood-opacity="0.3"/>
    </filter>
  </defs>
  
  <!-- Main circle with gradient -->
  <circle cx="24" cy="24" r="22" fill="url(#mainGrad)" filter="url(#shadow)"/>
  
  <!-- Inner circle for depth -->
  <circle cx="24" cy="24" r="20" fill="none" stroke="white" stroke-width="0.5" opacity="0.3"/>
  
  <!-- P letter - bold and modern -->
  <path d="M15 13H21C24 13 26 15 26 18C26 21 24 23 21 23H18V31H15V13Z M18 16V20H21C22.5 20 24 19 24 18C24 16.5 22.5 16 21 16H18Z" fill="white" opacity="0.95"/>
  
  <!-- B letter - bold and modern -->
  <path d="M27 13H32C34.5 13 36 14.5 36 16.5C36 17.5 35.5 18.5 34.5 19C35.8 19.5 36.5 20.5 36.5 22C36.5 24.5 34.5 26 32 26H27V13Z M30 15.5V18H32C33 18 33.5 17.5 33.5 16.5C33.5 15.5 33 15.5 32 15.5H30Z M30 20V23.5H32C33.2 23.5 34 22.8 34 22C34 21 33.2 20 32 20H30Z" fill="white" opacity="0.95"/>
  
  <!-- Shine effect -->
  <ellipse cx="24" cy="18" rx="16" ry="3" fill="url(#shineGrad)" opacity="0.4"/>
  
  <!-- Decorative dots -->
  <circle cx="13" cy="33" r="1.2" fill="white" opacity="0.6"/>
  <circle cx="35" cy="33" r="1.2" fill="white" opacity="0.6"/>
  <circle cx="24" cy="35" r="0.8" fill="white" opacity="0.4"/>
</svg>
