<?xml version="1.0" encoding="UTF-8"?>
<!DOCTYPE svg PUBLIC "-//W3C//DTD SVG 1.1//EN" "http://www.w3.org/Graphics/SVG/1.1/DTD/svg11.dtd">
<!-- Creator: CorelDRAW (Evaluation Version) -->
<svg xmlns="http://www.w3.org/2000/svg" xml:space="preserve" width="1.99999in" height="0.333331in" version="1.1" style="shape-rendering:geometricPrecision; text-rendering:geometricPrecision; image-rendering:optimizeQuality; fill-rule:evenodd; clip-rule:evenodd"
viewBox="0 0 1999.99 333.33"
 xmlns:xlink="http://www.w3.org/1999/xlink"
 xmlns:xodm="http://www.corel.com/coreldraw/odm/2003">
 <defs>
  <style type="text/css">
   <![CDATA[
    .fil2 {fill:#FEFEFE;fill-rule:nonzero}
    .fil0 {fill:#4DC1EC;fill-rule:nonzero}
    .fil1 {fill:#5F6CB1;fill-rule:nonzero}
   ]]>
  </style>
 </defs>
 <g id="Layer_x0020_1">
  <metadata id="CorelCorpID_0Corel-Layer"/>
  <path class="fil0" d="M1894.75 212.09c-0.15,-7.86 -2.22,-9.78 -10.33,-9.77 -10.93,0.02 -21.85,0.04 -32.77,0.04 -8.12,0 -10.54,3.14 -10.41,11.18 0.44,26.22 0.44,52.44 0.75,78.66 0.05,4.11 -1.89,5.23 -5.59,5.22 -13.76,-0.06 -27.53,-0.11 -41.29,0.08 -4.05,0.05 -3.9,-2.14 -3.83,-4.99 1.26,-54.56 3.02,-109.13 3.45,-163.7 0.2,-25.28 -2.11,-50.57 -3.43,-75.85 -0.43,-8.16 1.71,-10.81 9.74,-10.85 10.06,-0.05 20.11,0.21 30.16,-0.11 4.66,-0.15 5.88,1.39 5.85,5.89 -0.18,31.88 0.02,63.77 -0.21,95.65 -0.04,5.21 1.05,7.18 6.74,7 13.75,-0.42 27.54,-0.35 41.3,-0.02 4.98,0.11 6.25,-1.46 6.22,-6.27 -0.2,-31.67 0.1,-63.33 -0.27,-94.99 -0.08,-6.75 2.18,-9.02 8.56,-8.46 11.93,1.04 23.87,1.96 35.81,2.88 4.8,0.37 3.82,3.95 3.78,6.81 -0.29,21.66 -1.01,43.32 -0.92,64.98 0.12,26.43 0.87,52.86 1.4,79.29 0.39,19.27 0.84,38.54 1.31,57.82 0.25,10.38 0.5,20.76 0.93,31.14 0.15,3.5 -1.18,4.95 -4.45,6.67 -8.44,4.43 -16.36,9.87 -24.5,14.87 -2.93,1.8 -5.92,3.47 -8.88,5.2l-5.25 0 -3.87 -98.37z"/>
  <path class="fil0" d="M1480.55 169.04c-0.92,7.13 -2.65,14.26 -2.62,21.38 0.11,33.82 0.5,67.64 1.31,101.44 0.16,6.77 -1.74,8.49 -8.29,8.13 -10.02,-0.56 -20.12,-0.43 -30.16,-0.03 -5.26,0.22 -6.61,-1.49 -6.57,-6.57 0.27,-43.39 0.33,-86.79 0.34,-130.18 0.01,-30.59 -0.11,-61.19 -0.27,-91.78 -0.03,-5.4 -0.51,-10.8 -0.86,-16.19 -0.22,-3.38 0.95,-5.29 4.68,-5.5 13.27,-0.74 26.57,-2.61 39.75,-1.91 4.45,0.24 10.09,6.02 12.54,10.65 5.75,10.89 10.69,22.35 14.53,34.05 8.72,26.5 16.52,53.3 24.88,79.93 0.59,1.88 2.61,3.31 3.96,4.95 1.01,-2.04 2.94,-4.09 2.91,-6.11 -0.74,-41.38 -1.57,-82.77 -2.75,-124.14 -0.19,-6.3 1.47,-8.13 7.87,-7.95 11.54,0.31 23.13,-0.19 34.67,-0.81 5.29,-0.28 6.65,1.54 6.53,6.61 -1.04,44.42 -2.1,88.84 -2.63,133.26 -0.41,35.15 -0.07,70.3 -0.09,105.44 -0,10.55 -0.95,11.33 -11.78,11.15 -9.18,-0.16 -18.36,-0.25 -27.54,-0.07 -7.36,0.15 -11.74,-3.14 -14.27,-9.92 -13.57,-36.33 -27.29,-72.61 -40.98,-108.9 -0.89,-2.35 -1.99,-4.63 -3,-6.94 -0.72,0.01 -1.45,0.02 -2.17,0.03z"/>
  <path class="fil0" d="M1135.38 225.72c0,8.68 0.1,17.36 -0.05,26.04 -0.06,3.25 0.37,5.37 4.38,5.46 5.43,0.12 10.85,0.75 16.27,1.06 16.38,0.91 27.52,-7.37 34.8,-20.9 8.11,-15.09 4.79,-38.46 -16.52,-43.6 -11.5,-2.78 -22.85,-2.46 -34.21,0.75 -3.48,0.99 -4.87,2.75 -4.76,6.46 0.27,8.24 0.09,16.49 0.09,24.73zm-1.44 -106.69c0,8.22 0,16.45 0,24.67 0,15.94 0.04,16.16 15.86,12.96 16.48,-3.33 29.17,-11.58 33.39,-28.79 1.52,-6.2 1.36,-12.8 2.17,-19.19 2.1,-16.58 -18.07,-37.08 -41.96,-32.51 -7.2,1.38 -9.44,4.45 -9.46,11.69 -0.02,10.39 -0.01,20.78 -0.01,31.17zm59.06 46.12c6.96,5.06 14.41,9.65 20.87,15.34 18.47,16.3 23.3,37.13 15.78,59.7 -10.06,30.21 -28.91,53.39 -61.95,60.01 -14.09,2.82 -29.06,1.37 -43.64,1.74 -8.04,0.2 -16.11,-0.27 -24.11,0.34 -8.14,0.62 -10.3,-0.86 -10.3,-8.94 0.03,-79.38 0.04,-158.75 0.06,-238.13 0,-4.09 0.85,-8.48 -5.3,-9.39 -0.72,-0.11 -1.57,-3.31 -1.3,-4.91 0.19,-1.17 2,-2.77 3.28,-2.97 8.38,-1.3 16.81,-3.08 25.24,-3.17 18.09,-0.2 36.35,-0.84 54.26,1.17 34.37,3.85 64.16,38.67 63.82,72.75 -0.16,15.65 -7.62,28.24 -18.08,39.19 -5.94,6.21 -12.62,11.73 -18.63,17.26z"/>
  <path class="fil0" d="M1665.31 176.83c1.7,18.7 3.11,38.55 5.5,58.28 0.79,6.48 3.47,13 6.48,18.89 5.17,10.11 14.59,13.36 25.47,9.89 11.67,-3.72 19.2,-11.95 21.32,-23.41 1.98,-10.68 1.85,-21.81 1.87,-32.74 0.01,-4.65 -0.11,-7.22 5.79,-6.89 8.71,0.5 17.48,-0.1 26.21,0.31 1.87,0.09 5.08,2.36 5.22,3.85 2.56,28.4 -0.17,55.77 -20.8,77.83 -18.49,19.77 -41.86,26.22 -68.01,19.44 -25.17,-6.52 -40.43,-23.31 -46.98,-48.39 -8.74,-33.47 -10.84,-67.33 -8.22,-101.72 1.99,-26.07 6.69,-51.41 16.52,-75.74 11.85,-29.32 37.14,-39.03 64.44,-34.75 31.83,4.98 50.42,25.63 55.63,59.54 1.67,10.87 1.85,21.96 2.97,32.93 0.48,4.76 -1.48,5.88 -5.93,5.74 -9.17,-0.3 -18.37,-0.36 -27.52,0.03 -4.61,0.19 -5.88,-1.24 -6.19,-5.73 -0.83,-12.16 -3.07,-24.06 -10.14,-34.46 -8.62,-12.67 -23.16,-13.04 -30.57,0.48 -4.75,8.67 -7.3,18.97 -8.78,28.85 -2.31,15.36 -2.88,30.97 -4.3,47.78z"/>
  <path class="fil0" d="M1314.13 49.54c20.25,-1.1 40.51,-2.06 60.74,-3.39 5.03,-0.33 7.12,0.8 6.99,6.2 -0.31,12.57 -0.17,25.16 -0.07,37.74 0.03,4.24 -1.11,5.38 -5.83,4.76 -12.3,-1.6 -24.7,-2.5 -37.09,-3.27 -20.31,-1.26 -26.81,7.64 -28.69,27.12 -0.79,8.19 0.91,16.83 2.74,25 2.1,9.41 8.44,13.31 18.25,13.17 8.67,-0.11 17.48,-1.02 26,0.09 15.41,2 25.36,23.24 17.65,36.75 -3.55,6.22 -9.72,8.46 -16.65,8.55 -8.74,0.11 -17.48,-0.03 -26.23,0.05 -8.23,0.08 -11.61,3.37 -11.66,11.36 -0.07,10.41 0.17,20.83 -0.11,31.23 -0.12,4.38 1.49,5.51 5.68,5.48 20.98,-0.17 41.97,0.06 62.95,-0.19 4.85,-0.06 6.36,1.27 6.41,6.17 0.09,11.9 0.93,23.8 1.33,35.7 0.29,8.44 -1.63,10.44 -10.2,10.32 -15.06,-0.22 -30.11,-0.78 -45.17,-0.94 -18.14,-0.2 -36.29,-0.14 -54.43,-0.2 -2.41,-0.01 -4.82,0.06 -7.21,-0.13 -7.78,-0.59 -10.7,-5.04 -8.53,-12.42 1.03,-3.48 2.21,-7.11 2.25,-10.68 0.45,-41.84 1.35,-83.69 0.77,-125.52 -0.38,-27.22 -3.2,-54.41 -4.5,-81.63 -1.03,-21.64 -1.67,-22.62 19.62,-22.19 8.3,0.17 16.66,0.88 24.97,0.88 0.02,0.28 -0.02,-0.29 0,0z"/>
  <path class="fil1" d="M907.37 110.17c0,10.28 0.14,20.57 -0.07,30.84 -0.09,4.63 0.96,6.96 6.38,7.02 29.57,0.37 44.59,-14.04 44.58,-43.42 0,-5.11 -0.27,-10.29 -1.08,-15.33 -1.96,-12.13 -8.18,-18.54 -20.39,-19.54 -7.63,-0.63 -15.52,0.09 -23.08,1.42 -2.46,0.43 -5.87,4.59 -6.05,7.22 -0.69,10.56 -0.28,21.19 -0.28,31.79zm-41.32 47.83c0,-40.3 0.09,-80.61 -0.11,-120.91 -0.03,-5.88 0.94,-8.37 7.83,-8.2 20.72,0.52 41.67,-1.55 62.14,0.72 14,1.56 28.28,7.04 40.81,13.74 18.65,9.97 25.72,27.35 23.13,48.26 -1.57,12.75 -2.39,25.71 -5.46,38.11 -3.28,13.27 -10.79,23.92 -25.52,27.9 -2.99,0.81 -7.46,5.33 -7.08,7.41 0.73,4.13 3.69,10.36 6.9,11.18 25.67,6.57 30.05,25.76 30.17,47.74 0.13,23.85 -0.06,47.69 0.11,71.54 0.04,4.62 -0.77,7.2 -6.24,7.07 -11.95,-0.27 -23.93,-0.23 -35.88,0.02 -5.15,0.11 -5.16,-2.22 -5.2,-6.49 -0.28,-27.28 -0.57,-54.57 -1.8,-81.81 -0.59,-13.22 -10.56,-23.71 -22.95,-26.94 -9.3,-2.43 -13.73,-0.56 -14.85,9.46 -1.32,11.73 -0.87,23.76 -0.05,35.59 1.01,14.43 3.65,28.74 4.75,43.17 0.79,10.38 -2.77,12.83 -13.33,12.31 -9.07,-0.44 -18.2,-0.67 -27.24,0 -7.94,0.59 -10.46,-1.57 -10.36,-9.91 0.48,-39.97 0.21,-79.96 0.22,-119.94z"/>
  <path class="fil1" d="M119.89 66.93c-14.03,2.02 -16.45,1.07 -16.3,14.46 0.18,15.06 1.26,30.11 1.73,45.18 0.55,17.87 9.02,24.15 25.84,17.46 16.35,-6.51 25.69,-20.1 31.1,-36.11 4.61,-13.63 0.7,-25.31 -11.83,-32.38 -9.32,-5.25 -13.91,-8.61 -30.54,-8.61zm-36.77 220.32c-8.59,-0.18 -12.23,-2.27 -12.09,-11.63 0.68,-44.15 1.35,-88.31 0.68,-132.46 -0.43,-28.61 -3.1,-57.2 -4.89,-85.79 -1.22,-19.56 -3.71,-31.7 25.47,-28.46 18.27,2.04 37.07,-0.83 55.37,1.04 28.67,2.93 45.04,21.48 54.81,47.2 9.72,25.57 1.88,46.76 -15.83,65.39 -7.75,8.15 -16.74,15.14 -25.18,22.66 0.44,1.08 -1.32,-3.24 0,0 30.85,5.65 41.17,30.91 42.78,57.67 1.43,23.78 1.63,47.63 2.58,71.45 0.2,5.04 -1.11,8.31 -6.66,8.27 -11.59,-0.08 -23.33,0.67 -34.74,-0.86 -7.95,-1.06 -9.48,-8.88 -9.53,-15.99 -0.12,-19.33 0.07,-38.68 -0.16,-58.02 -0.07,-5.76 -0.6,-11.62 -1.79,-17.25 -3.13,-14.76 -17.91,-25.04 -32.74,-22.51 -1.89,0.32 -4.36,4.74 -4.38,7.28 -0.18,25.14 0.07,50.28 0.28,75.41 0.13,14.96 -4.15,18.72 -19.48,17.18l-14.52 -0.6z"/>
  <path class="fil1" d="M594.95 163.88c-0.52,0 0.52,0 0,0 0,18.34 -0.65,36.71 0.18,55.02 0.86,18.94 15.83,26.62 30.94,15.1 8.58,-6.54 16.29,-16.22 20.42,-26.11 12.05,-28.86 12.27,-59.02 2.7,-88.67 -5.85,-18.13 -17.34,-32.39 -36.48,-38.74 -11.39,-3.78 -16.14,-0.43 -16.17,11.07 -0.06,24.11 -1.59,48.22 -1.59,72.33zm-43.64 5.95c1.57,-41.13 2.97,-80.69 4.65,-120.24 0.72,-17.08 8.2,-25.32 24.87,-23.75 36.27,3.41 68.75,15.79 92.06,45.45 11.54,14.67 16,32.3 18.3,50.25 4.47,34.91 6.07,69.92 -2.22,104.59 -5.2,21.72 -18.36,37.35 -38.43,47.13 -22.04,10.75 -45.49,16.69 -69.88,19.13 -1.29,0.13 -2.59,0.15 -3.89,0.16 -17.3,0.15 -21.53,-2.96 -22.28,-20.02 -1.52,-34.72 -2.2,-69.48 -3.18,-102.7z"/>
  <g>
   <path class="fil1" d="M465.4 175.51c9.54,-1.63 18.03,-10.41 16.64,-20.19 -1.26,-8.89 -2.61,-17.78 -4.33,-26.59 -2.41,-12.28 -4.22,-24.82 -8.26,-36.59 -1.72,-5.03 -7.74,-10.16 -12.99,-12.07 -7.22,-2.64 -11.74,3.57 -14.83,9.55 -1.91,3.7 -3.94,7.56 -4.7,11.58 -3.6,19.19 -7.48,38.38 -9.89,57.74 -1.66,13.31 7.37,16.27 21.06,16.56l17.29 0zm-10.64 -146.34c3.24,0 6.49,0.1 9.72,-0.02 22.63,-0.86 22.64,-0.88 27.61,20.96 15.68,68.98 31.35,137.97 47.03,206.95 4.04,17.74 0.52,22.12 -17.89,22.16 -21.08,0.05 -30.27,-8.47 -31.63,-29.35 -0.42,-6.41 -0.44,-12.87 -1.31,-19.21 -1.03,-7.48 -6.12,-11.47 -13.49,-11.31 -12.31,0.27 -24.64,0.91 -36.9,2.06 -7.73,0.72 -13.25,5.34 -15.44,12.87 -2.6,8.94 -4.79,18.01 -7.01,27.06 -4.71,19.28 -18.82,28.64 -38.42,24.71 -2.65,-0.53 -6.54,-4.22 -6.62,-6.56 -0.3,-8.24 -0.26,-16.77 1.58,-24.74 8.66,-37.59 18.37,-74.94 26.91,-112.55 6.97,-30.72 12.3,-61.8 19.37,-92.5 4.85,-21.07 6.29,-21.35 27.74,-20.29 2.91,0.15 5.83,0.02 8.75,0.02 0,-0.09 0,-0.18 0,-0.27z"/>
  </g>
  <path class="fil1" d="M228.61 159.8c0,-36.1 0.15,-72.2 -0.14,-108.3 -0.06,-6.52 1.43,-8.57 8.46,-8.88 30.12,-1.32 60.22,-3.22 90.28,-5.51 6.78,-0.52 9.85,1.29 9.96,7.76 0.18,11.27 -0.16,22.56 0.29,33.82 0.36,9.18 -4.39,9.94 -11.59,8.22 -11.65,-2.78 -23.32,-5.56 -35.05,-8 -16.96,-3.53 -21.58,-0.03 -21.53,17.01 0.04,13.52 1.09,27.02 1.41,40.54 0.14,6.24 3.84,7.44 8.96,7.44 13.64,-0.02 27.29,0.27 40.92,-0.11 6.18,-0.17 9.1,1.87 9.2,8.04 0.17,9.95 0.76,19.9 0.5,29.84 -0.04,1.65 -3.35,4.47 -5.3,4.61 -9.33,0.66 -18.72,0.73 -28.09,0.72 -17.48,-0 -20.8,3.56 -18.64,20.51 3.57,27.98 3.57,27.98 32.28,27.98 10.72,0 21.44,-0.2 32.15,0.18 2.18,0.07 6.16,2.3 6.15,3.52 -0.07,12.8 -0.4,25.63 -1.5,38.38 -0.46,5.28 -3.41,6.89 -10.13,6.16 -22.5,-2.44 -45.18,-3.23 -67.8,-4.46 -11.01,-0.61 -22.04,-0.9 -33.07,-1.15 -6.21,-0.14 -7.91,-2.99 -7.85,-9.05 0.28,-36.43 0.14,-72.85 0.14,-109.27z"/>
  <path class="fil1" d="M715.26 160.15c0,-36.1 0.06,-72.19 -0.06,-108.29 -0.02,-5.5 0.41,-8.54 7.63,-8.86 31.08,-1.37 62.12,-3.69 93.19,-5.28 2.09,-0.11 6.16,2.85 6.24,4.51 0.61,13.8 0.72,27.65 0.26,41.45 -0.05,1.41 -5.16,4.13 -7.47,3.73 -13.7,-2.42 -27.24,-5.76 -40.89,-8.44 -14.03,-2.76 -18.74,0.71 -18.92,15.06 -0.18,14.46 0.8,28.94 1.29,43.41 0.23,6.89 5.39,7.27 10.37,7.33 13.31,0.15 26.63,0.35 39.94,-0.06 6.4,-0.2 8.8,2.23 8.83,8.29 0.06,9.65 0.85,19.33 0.35,28.94 -0.1,1.98 -4.35,5.18 -6.85,5.34 -9.69,0.65 -19.43,0.24 -29.16,0.35 -14.42,0.17 -17.91,4.19 -16.09,18.28 0.17,1.28 0.3,2.56 0.43,3.83 2.46,24.81 4.24,26.44 29.02,26.44 11.37,0 22.75,0.35 34.09,-0.14 6.19,-0.26 7.78,1.87 7.52,7.69 -0.43,9.63 0.62,19.37 -0.24,28.94 -0.98,10.93 -3.94,11.56 -14.85,10.6 -21.59,-1.89 -43.28,-2.63 -64.94,-3.65 -10.37,-0.49 -20.76,-0.61 -31.15,-0.7 -6.57,-0.06 -8.74,-2.91 -8.69,-9.53 0.3,-36.42 0.14,-72.84 0.15,-109.26z"/>
  <path class="fil2" d="M1372.19 -259.43c0.48,0.36 0.98,0.72 1.46,1.07 -0.29,0.13 -0.76,0.43 -0.85,0.35 -0.36,-0.34 -0.6,-0.8 -0.89,-1.22 -0.02,0.01 0.28,-0.21 0.28,-0.21z"/>
 </g>
</svg>
