<?xml version="1.0" encoding="utf-8"?>
<svg version="1.1" id="Capa_1" x="0px" y="0px" viewBox="0 0 490 490" style="enable-background:new 0 0 490 490;" xmlns="http://www.w3.org/2000/svg">
  <path d="M 420.745 83.833 L 406.088 83.373 L 405.363 69.941 L 403.034 34.278 L 382.268 35.605 L 385.775 89.322 L 372.89 102.071 C 333.293 67.331 281.236 46.2 224.275 46.2 C 100.611 46.2 0 145.742 0 268.098 C 0 390.454 100.611 490 224.275 490 C 347.938 490 448.539 390.453 448.539 268.098 C 448.539 209.492 425.448 156.129 387.808 116.423 L 401.156 103.215 L 454.015 106.589 L 455.356 86.042 L 420.745 83.833 Z M 427.732 268.098 C 427.732 379.105 336.458 469.414 224.275 469.414 C 112.082 469.414 20.807 379.105 20.807 268.098 C 20.807 157.096 112.082 66.788 224.275 66.788 C 275.496 66.788 322.352 85.622 358.157 116.649 L 373.092 130.984 C 406.969 166.955 427.732 215.169 427.732 268.098 Z M 224.101 278.401 L 286.482 216.678 C 298.268 230.614 305.378 248.546 305.378 268.097 C 305.378 312.347 268.997 348.349 224.275 348.349 C 179.551 348.349 143.16 312.347 143.16 268.097 C 143.16 223.847 179.551 187.85 224.275 187.85 C 241.748 187.85 257.934 193.363 271.189 202.699 L 209.391 263.845 L 224.101 278.401 Z M 286.07 187.975 C 268.915 174.991 247.491 167.264 224.275 167.264 C 168.071 167.264 122.353 212.5 122.353 268.098 C 122.353 323.702 168.071 368.937 224.275 368.937 C 280.467 368.937 326.185 323.702 326.185 268.098 C 326.185 242.871 316.772 219.779 301.24 202.077 L 286.07 187.975 Z" style="fill: rgb(0, 0, 53);"/>
  <g/>
  <g/>
  <g/>
  <g/>
  <g/>
  <g/>
  <g/>
  <g/>
  <g/>
  <g/>
  <g/>
  <g/>
  <g/>
  <g/>
  <g/>
  <path style="paint-order: stroke; stroke: rgb(0, 0, 0); fill: rgb(0, 0, 53);" d="M 283.744 191.374 L 358.953 117.372 L 371.488 127.7 L 296.279 203.977"/>
</svg>