<svg width="64" height="64" viewBox="0 0 64 64" xmlns="http://www.w3.org/2000/svg" role="img" aria-label="PB Orbit Logo">
  <defs>
    <linearGradient id="pb-grad" x1="0%" y1="0%" x2="100%" y2="100%">
      <stop offset="0%" stop-color="#7F5AF0"/>
      <stop offset="100%" stop-color="#2CB67D"/>
    </linearGradient>
  </defs>
  <!-- Outer ring -->
  <circle cx="32" cy="32" r="24" fill="none" stroke="url(#pb-grad)" stroke-width="2" />
  <!-- Orbit line -->
  <path d="M10 36c8-10 24-14 44-8" fill="none" stroke="url(#pb-grad)" stroke-width="2" stroke-linecap="round"/>
  <!-- Planet -->
  <circle cx="50" cy="28" r="4" fill="#ffffff" stroke="url(#pb-grad)" stroke-width="2"/>
  <!-- Monogram (minimal) -->
  <g fill="#0f1220">
    <path d="M22 39 V25 h7 c4.5 0 7 2.4 7 6s-2.5 6-7 6h-3.5v2H22zm3.5-8h3.4c2.1 0 3.5-1.1 3.5-2.9s-1.4-3-3.5-3h-3.4v5.9z"/>
    <path d="M39 39 V25h6.5c3.8 0 6 1.9 6 5c0 2.3-1.2 3.8-3.2 4.6l3.7 4.4H48l-3.3-4h-2.7v4H39zm3.5-6.8h3.1c1.9 0 3-0.9 3-2.4 0-1.6-1.1-2.3-3-2.3h-3.1v4.7z"/>
  </g>
</svg>
